PathFileType	4	(X/Y/Z)	C:\Users\italobelli\Desktop\GitHub\PTbot_officialCBL\Personal_Results\ABD01_noisy2.trc
DataRate	CameraRate	NumFrames	NumMarkers	Units	OrigDataRate	OrigDataStartFrame	OrigNumFrames
104.666667	104.666667	17	9	m	104.666667	551	1100
Frame#	Time		gu		centelbow		EpL		centpxt8		centijc7		ij		ts		aa		ai
			X1	Y1	Z1	X2	Y2	Z2	X3	Y3	Z3	X4	Y4	Z4	X5	Y5	Z5	X6	Y6	Z6	X7	Y7	Z7	X8	Y8	Z8	X9	Y9	Z9

551	5.2548	-0.081628	0.05484	0.12482	-0.10277	0.14348	0.35862	-0.11872	0.16668	0.34316	-0.046816	-0.15316	-0.008669	-0.046816	0.031938	-0.008669	0	0	0	-0.13053	-0.0069616	0.036032	-0.12128	0.07499	0.12213	-0.13395	-0.085434	0.11796
552	5.2643	-0.081711	0.054987	0.12462	-0.10253	0.14503	0.35817	-0.11852	0.16812	0.34261	-0.046816	-0.15316	-0.008669	-0.046816	0.031938	-0.008669	0	0	0	-0.13062	-0.0070501	0.036072	-0.12143	0.075144	0.12195	-0.13404	-0.085298	0.11821
553	5.2739	-0.081795	0.055132	0.12442	-0.10228	0.14657	0.35772	-0.11831	0.16956	0.34205	-0.046816	-0.15316	-0.008669	-0.046816	0.031938	-0.008669	0	0	0	-0.1307	-0.0071385	0.036112	-0.12158	0.075297	0.12176	-0.13413	-0.085162	0.11846
554	5.2834	-0.081879	0.055275	0.12422	-0.10203	0.1481	0.35725	-0.1181	0.17099	0.34149	-0.046816	-0.15316	-0.008669	-0.046816	0.031938	-0.008669	0	0	0	-0.13079	-0.0072268	0.036153	-0.12173	0.075447	0.12158	-0.13422	-0.085027	0.1187
555	5.293	-0.081963	0.055416	0.12402	-0.10178	0.14962	0.35679	-0.11789	0.17241	0.34092	-0.046816	-0.15316	-0.008669	-0.046816	0.031938	-0.008669	0	0	0	-0.13088	-0.0073151	0.036195	-0.12188	0.075596	0.1214	-0.13431	-0.084891	0.11895
556	5.3025	-0.082047	0.055555	0.12383	-0.10153	0.15114	0.35631	-0.11767	0.17382	0.34035	-0.046816	-0.15316	-0.008669	-0.046816	0.031938	-0.008669	0	0	0	-0.13096	-0.0074034	0.036236	-0.12203	0.075743	0.12122	-0.1344	-0.084756	0.11919
557	5.3121	-0.082131	0.055692	0.12363	-0.10127	0.15264	0.35583	-0.11745	0.17523	0.33977	-0.046816	-0.15316	-0.008669	-0.046816	0.031938	-0.008669	0	0	0	-0.13105	-0.0074917	0.036278	-0.12218	0.075888	0.12104	-0.13448	-0.084621	0.11944
558	5.3217	-0.082214	0.055827	0.12344	-0.10101	0.15414	0.35535	-0.11723	0.17662	0.33919	-0.046816	-0.15316	-0.008669	-0.046816	0.031938	-0.008669	0	0	0	-0.13113	-0.00758	0.036321	-0.12234	0.07603	0.12086	-0.13457	-0.084487	0.11968
559	5.3312	-0.082296	0.055959	0.12324	-0.10075	0.15562	0.35486	-0.11701	0.17801	0.3386	-0.046816	-0.15316	-0.008669	-0.046816	0.031938	-0.008669	0	0	0	-0.13122	-0.0076683	0.036363	-0.12249	0.076171	0.12069	-0.13465	-0.084354	0.11992
560	5.3408	-0.082378	0.056089	0.12305	-0.10048	0.1571	0.35437	-0.11678	0.17938	0.33801	-0.046816	-0.15316	-0.008669	-0.046816	0.031938	-0.008669	0	0	0	-0.1313	-0.0077567	0.036406	-0.12264	0.076309	0.12051	-0.13473	-0.08422	0.12016
561	5.3503	-0.082459	0.056217	0.12286	-0.10021	0.15857	0.35387	-0.11654	0.18075	0.33742	-0.046816	-0.15316	-0.008669	-0.046816	0.031938	-0.008669	0	0	0	-0.13139	-0.0078452	0.036449	-0.12279	0.076445	0.12034	-0.1348	-0.084088	0.1204
562	5.3599	-0.082539	0.056342	0.12267	-0.099934	0.16003	0.35336	-0.11631	0.1821	0.33681	-0.046816	-0.15316	-0.008669	-0.046816	0.031938	-0.008669	0	0	0	-0.13147	-0.0079338	0.036492	-0.12294	0.076579	0.12017	-0.13488	-0.083957	0.12065
563	5.3694	-0.082617	0.056465	0.12248	-0.099652	0.16147	0.35285	-0.11607	0.18345	0.33621	-0.046816	-0.15316	-0.008669	-0.046816	0.031938	-0.008669	0	0	0	-0.13156	-0.0080225	0.036536	-0.12309	0.07671	0.12	-0.13495	-0.083826	0.12088
564	5.379	-0.082694	0.056585	0.12229	-0.099364	0.16291	0.35234	-0.11582	0.18478	0.33559	-0.046816	-0.15316	-0.008669	-0.046816	0.031938	-0.008669	0	0	0	-0.13164	-0.0081113	0.036579	-0.12323	0.076838	0.11983	-0.13501	-0.083697	0.12112
565	5.3885	-0.082768	0.056703	0.12209	-0.099071	0.16434	0.35182	-0.11557	0.18611	0.33498	-0.046816	-0.15316	-0.008669	-0.046816	0.031938	-0.008669	0	0	0	-0.13173	-0.0082003	0.036623	-0.12338	0.076964	0.11966	-0.13508	-0.083568	0.12136
566	5.3981	-0.082841	0.056818	0.12191	-0.098772	0.16576	0.35129	-0.11532	0.18742	0.33435	-0.046816	-0.15316	-0.008669	-0.046816	0.031938	-0.008669	0	0	0	-0.13181	-0.0082894	0.036667	-0.12352	0.077087	0.1195	-0.13513	-0.083441	0.1216
567	5.4076	-0.082912	0.05693	0.12172	-0.098466	0.16716	0.35076	-0.11506	0.18873	0.33372	-0.046816	-0.15316	-0.008669	-0.046816	0.031938	-0.008669	0	0	0	-0.13189	-0.0083788	0.03671	-0.12366	0.077206	0.11934	-0.13519	-0.083315	0.12184
